# File created by Blade
# Date/Time:  Thu Jan 15 17:55:17 2015
#---------------------------------------------------------
:version 1.10
:name HOM
:units
  mass 1.0
  length 1.000000
  angle deg
:documentation
     Acclaim Skeleton File
:root
   axis xyz
   order TX TY TZ RX RY RZ
   position 0.000000 0.000000 0.000000
   orientation 0 0 0
:bonedata
   begin
      id 1
      name Spine_dum
      direction 0.000000 1.000000 0.000000
      length 5.015652
      axis 0.0 0.0 0.0 xyz
   end
   begin
      id 2
      name LeftUpLeg_dum
      direction 1.000000 0.000000 0.000000
      length 4.275145
      axis 0.0 0.0 0.0 xyz
   end
   begin
      id 3
      name RightUpLeg_dum
      direction -1.000000 0.000000 0.000000
      length 4.275145
      axis 0.0 0.0 0.0 xyz
   end
   begin
      id 4
      name Spine
      direction 0.000000 1.000000 0.000000
      length 0.000000
      axis 0.0 0.0 0.0 xyz
      dof rx ry rz
   end
   begin
      id 5
      name Spine_dum1
      direction 0.000000 1.000000 0.000000
      length 15.980521
      axis 0.0 0.0 0.0 xyz
   end
   begin
      id 6
      name Spine_dum2
      direction 0.000000 1.000000 0.000000
      length 12.162712
      axis 0.0 0.0 0.0 xyz
   end
   begin
      id 7
      name Spine_dum3
      direction 0.000000 1.000000 0.000000
      length 12.162712
      axis 0.0 0.0 0.0 xyz
   end
   begin
      id 8
      name Head
      direction 0.000000 1.000000 0.000000
      length 4.527550
      axis 0.0 0.0 0.0 xyz
      dof rx ry rz
   end
   begin
      id 9
      name LeftShoulder
      direction 1.000000 0.000000 0.000000
      length 7.205867
      axis 0.0 0.0 -90.0 xyz
      dof rx ry rz
   end
   begin
      id 10
      name LeftArm
      direction 1.000000 0.000000 0.000000
      length 10.786708
      axis 0.0 0.0 -90.0 xyz
      dof rx ry rz
   end
   begin
      id 11
      name LeftForeArm
      direction 1.000000 0.000000 0.000000
      length 7.946034
      axis 0.0 0.0 -90.0 xyz
      dof rz ry rx
   end
   begin
      id 12
      name LeftHand
      direction 0.000000 0.000000 0.000000
      length 0.000000
      axis 0.0 0.0 -90.0 xyz
      dof rx ry rz
   end
   begin
      id 13
      name LeftHand_dum1
      direction 0.000000 0.000000 0.000000
      length 0.000000
      axis 0.0 0.0 -90.0 xyz
   end
   begin
      id 14
      name LeftHand_dum2
      direction 1.000000 0.000000 0.000000
      length 3.937000
      axis 0.0 0.0 -90.0 xyz
   end
   begin
      id 15
      name LeftHandThumb1
      direction 0.000000 0.000000 1.000000
      length 3.937000
      axis 0.0 0.0 -90.0 xyz
      dof rx ry rz
   end
   begin
      id 16
      name RightShoulder
      direction -1.000000 0.000000 0.000000
      length 7.205867
      axis 0.0 0.0 90.0 xyz
      dof rx ry rz
   end
   begin
      id 17
      name RightArm
      direction -1.000000 0.000000 0.000000
      length 10.786708
      axis 0.0 0.0 90.0 xyz
      dof rx ry rz
   end
   begin
      id 18
      name RightForeArm
      direction -1.000000 0.000000 0.000000
      length 7.946034
      axis 0.0 0.0 90.0 xyz
      dof rz ry rx
   end
   begin
      id 19
      name RightHand
      direction 0.000000 0.000000 0.000000
      length 0.000000
      axis 0.0 0.0 90.0 xyz
      dof rx ry rz
   end
   begin
      id 20
      name RightHand_dum1
      direction 0.000000 0.000000 0.000000
      length 0.000000
      axis 0.0 0.0 90.0 xyz
   end
   begin
      id 21
      name RightHand_dum2
      direction -1.000000 0.000000 0.000000
      length 3.937000
      axis 0.0 0.0 90.0 xyz
   end
   begin
      id 22
      name RightHandThumb1
      direction 0.000000 0.000000 1.000000
      length 3.937000
      axis 0.0 0.0 90.0 xyz
      dof rx ry rz
   end
   begin
      id 23
      name LeftUpLeg
      direction 0.000000 -1.000000 0.000000
      length 17.046659
      axis 0.0 0.0 0.0 xyz
      dof rx ry rz
   end
   begin
      id 24
      name LeftLeg
      direction 0.000000 -1.000000 0.000000
      length 17.458438
      axis 0.0 0.0 0.0 xyz
      dof rx ry rz
   end
   begin
      id 25
      name LeftFoot
      direction 0.000000 -0.258819 0.965926
      length 5.099406
      axis 15.0 0.0 0.0 xyz
      dof rx ry rz
   end
   begin
      id 26
      name LeftToeBase
      direction 0.000000 0.000000 1.000000
      length 2.952750
      axis 0.0 0.0 0.0 xyz
      dof rx ry rz
   end
   begin
      id 27
      name RightUpLeg
      direction 0.000000 -1.000000 0.000000
      length 17.046659
      axis 0.0 0.0 0.0 xyz
      dof rx ry rz
   end
   begin
      id 28
      name RightLeg
      direction 0.000000 -1.000000 0.000000
      length 17.458438
      axis 0.0 0.0 0.0 xyz
      dof rx ry rz
   end
   begin
      id 29
      name RightFoot
      direction 0.000000 -0.258819 0.965926
      length 5.099406
      axis 15.0 0.0 0.0 xyz
      dof rx ry rz
   end
   begin
      id 30
      name RightToeBase
      direction 0.000000 0.000000 1.000000
      length 2.952750
      axis 0.0 0.0 0.0 xyz
      dof rx ry rz
   end
:hierarchy
   begin
      root Spine_dum LeftUpLeg_dum RightUpLeg_dum
      Spine_dum Spine
      LeftUpLeg_dum LeftUpLeg
      RightUpLeg_dum RightUpLeg
      Spine Spine_dum1 Spine_dum2 Spine_dum3
      Spine_dum1 Head
      Spine_dum2 LeftShoulder
      Spine_dum3 RightShoulder
      LeftShoulder LeftArm
      LeftArm LeftForeArm
      LeftForeArm LeftHand
      LeftHand LeftHand_dum1 LeftHand_dum2
      LeftHand_dum1 LeftHandThumb1
      RightShoulder RightArm
      RightArm RightForeArm
      RightForeArm RightHand
      RightHand RightHand_dum1 RightHand_dum2
      RightHand_dum1 RightHandThumb1
      LeftUpLeg LeftLeg
      LeftLeg LeftFoot
      LeftFoot LeftToeBase
      RightUpLeg RightLeg
      RightLeg RightFoot
      RightFoot RightToeBase
   end

# File created by Blade
# Date/Time:  Thu Jan 15 17:55:09 2015
# Frame Rate: 120.000 fps
#------------------------------------------------------
:FULLY-SPECIFIED
:DEGREES
105
root 5.342729 35.711248 -10.595110 6.437564 -1.304511 1.690302
Spine -10.712038 -15.146808 -1.779017
Head 1.616620 11.622974 16.098397
LeftShoulder -32.440275 2.622426 15.159927
LeftArm 14.580100 -45.775053 -19.614949
LeftForeArm -0.000000 23.166239 -4.104671
LeftHand 1.351482 -0.000000 -1.686233
LeftHandThumb1 -26.253704 33.147579 0.000000
RightShoulder -2.558125 18.423860 -14.007737
RightArm 5.553985 35.072182 22.172029
RightForeArm 0.000000 -48.278640 12.353878
RightHand -3.321817 -0.000000 1.131877
RightHandThumb1 -24.326973 -32.862282 -0.000000
LeftUpLeg -0.330989 11.626254 -1.278762
LeftLeg -1.038321 -0.000000 0.000000
LeftFoot -23.240912 18.831805 -15.634749
LeftToeBase 25.177173 -0.000000 -0.000000
RightUpLeg 1.230606 -14.509118 -1.644510
RightLeg -4.636200 -0.000000 0.000000
RightFoot -21.469931 -23.630916 11.803269
RightToeBase 26.877195 -0.000000 -0.000000
106
root 5.341218 35.711069 -10.595885 6.450792 -1.305243 1.690140
Spine -10.698719 -15.150684 -1.782890
Head 1.588083 11.649362 16.092522
LeftShoulder -32.460278 2.600611 15.151949
LeftArm 14.552724 -45.757759 -19.636192
LeftForeArm -0.000000 23.162072 -4.045552
LeftHand 1.441279 0.000000 -1.235339
LeftHandThumb1 -26.253704 33.147579 0.000000
RightShoulder -2.570847 18.424120 -14.031532
RightArm 5.498213 34.940826 22.198091
RightForeArm -0.000000 -48.183732 12.432820
RightHand -3.262920 -0.000000 0.762544
RightHandThumb1 -24.326973 -32.862282 -0.000000
LeftUpLeg -0.343135 11.610751 -1.278863
LeftLeg -1.040580 -0.000000 0.000000
LeftFoot -23.237943 18.840255 -15.635444
LeftToeBase 25.178687 -0.000000 -0.000000
RightUpLeg 1.221717 -14.511044 -1.638393
RightLeg -4.646952 -0.000000 0.000000
RightFoot -21.490186 -23.661458 11.698314
RightToeBase 27.272319 -0.000000 -0.000000
107
root 5.339095 35.710967 -10.595968 6.454616 -1.308366 1.687305
Spine -10.673632 -15.138058 -1.790041
Head 1.556423 11.667339 16.079493
LeftShoulder -32.471467 2.602613 15.124719
LeftArm 14.533770 -45.712938 -19.661632
LeftForeArm -0.000000 23.126677 -3.970517
LeftHand 1.536718 -0.000000 -0.701788
LeftHandThumb1 -26.253704 33.147579 0.000000
RightShoulder -2.583670 18.405205 -14.058753
RightArm 5.426244 34.933626 22.249014
RightForeArm -0.000000 -48.226549 12.530858
RightHand -3.187414 0.000000 0.266784
RightHandThumb1 -24.326973 -32.862282 -0.000000
LeftUpLeg -0.344214 11.663875 -1.275502
LeftLeg -1.047659 -0.000000 0.000000
LeftFoot -23.215820 18.805284 -15.609287
LeftToeBase 25.154217 -0.000000 -0.000000
RightUpLeg 1.222470 -14.506575 -1.632115
RightLeg -4.658844 -0.000000 0.000000
RightFoot -21.476147 -23.678726 11.689994
RightToeBase 27.103629 -0.000000 -0.000000
108
root 5.337266 35.710598 -10.597051 6.464218 -1.306189 1.686792
Spine -10.649080 -15.141113 -1.791383
Head 1.506990 11.692236 16.059539
LeftShoulder -32.502497 2.599549 15.082614
LeftArm 14.521652 -45.647907 -19.684729
LeftForeArm -0.000000 23.093778 -3.866567
LeftHand 1.654590 0.000000 -0.126524
LeftHandThumb1 -26.253704 33.147579 0.000000
RightShoulder -2.577503 18.409895 -14.097004
RightArm 5.313250 35.001336 22.340420
RightForeArm 0.000000 -48.336722 12.733952
RightHand -3.341462 -0.000000 -0.225812
RightHandThumb1 -24.326973 -32.862282 -0.000000
LeftUpLeg -0.359065 11.639096 -1.272461
LeftLeg -1.042869 -0.000000 0.000000
LeftFoot -23.230971 18.822982 -15.618744
LeftToeBase 25.176039 -0.000000 -0.000000
RightUpLeg 1.215693 -14.520024 -1.626061
RightLeg -4.667776 -0.000000 0.000000
RightFoot -21.471575 -23.669929 11.688233
RightToeBase 27.106307 -0.000000 -0.000000
109
root 5.335318 35.710360 -10.598312 6.472977 -1.307430 1.692796
Spine -10.613512 -15.142099 -1.812541
Head 1.438843 11.716905 16.057949
LeftShoulder -32.540810 2.568911 15.076276
LeftArm 14.470412 -45.520198 -19.722377
LeftForeArm -0.000000 23.067184 -3.709049
LeftHand 1.731460 -0.000000 0.692806
LeftHandThumb1 -26.253704 33.147579 0.000000
RightShoulder -2.588024 18.361431 -14.164535
RightArm 5.164966 35.103745 22.481680
RightForeArm 0.000000 -48.377926 13.019648
RightHand -3.317743 0.000000 -0.676396
RightHandThumb1 -24.326973 -32.862282 -0.000000
LeftUpLeg -0.368882 11.659974 -1.278708
LeftLeg -1.044865 -0.000000 0.000000
LeftFoot -23.218590 18.799489 -15.621739
LeftToeBase 25.169631 -0.000000 -0.000000
RightUpLeg 1.211921 -14.505431 -1.625072
RightLeg -4.685540 -0.000000 0.000000
RightFoot -21.463997 -23.691979 11.668576
RightToeBase 27.109816 -0.000000 -0.000000
110
root 5.333018 35.710017 -10.599781 6.477995 -1.307038 1.689153
Spine -10.563427 -15.141613 -1.815727
Head 1.340679 11.740604 16.031600
LeftShoulder -32.617352 2.590802 15.013279
LeftArm 14.520749 -45.468076 -19.848445
LeftForeArm 0.000000 22.951893 -3.567193
LeftHand 1.808708 -0.000000 1.533484
LeftHandThumb1 -26.253704 33.147579 0.000000
RightShoulder -2.603150 18.276632 -14.286889
RightArm 4.968203 35.242035 22.699954
RightForeArm -0.000000 -48.371876 13.394492
RightHand -3.427181 -0.000000 -1.163401
RightHandThumb1 -24.326973 -32.862282 -0.000000
LeftUpLeg -0.379741 11.655657 -1.273806
LeftLeg -1.041819 -0.000000 0.000000
LeftFoot -23.228783 18.819823 -15.610725
LeftToeBase 25.174634 -0.000000 -0.000000
RightUpLeg 1.210108 -14.497553 -1.614584
RightLeg -4.694683 -0.000000 0.000000
RightFoot -21.467402 -23.697314 11.663819
RightToeBase 27.281409 -0.000000 -0.000000
111
root 5.330670 35.710064 -10.600913 6.477536 -1.309603 1.690275
Spine -10.497013 -15.129993 -1.838693
Head 1.220332 11.759211 16.024335
LeftShoulder -32.694308 2.606411 14.983295
LeftArm 14.551594 -45.311878 -19.999496
LeftForeArm -0.000000 22.576273 -3.434198
LeftHand 1.826942 -0.000000 2.297895
LeftHandThumb1 -26.253704 33.147579 0.000000
RightShoulder -2.639765 18.120701 -14.428254
RightArm 4.754651 35.241232 22.968820
RightForeArm 0.000000 -48.152734 13.774965
RightHand -3.384644 0.000000 -1.762085
RightHandThumb1 -24.326973 -32.862282 -0.000000
LeftUpLeg -0.379858 11.685042 -1.271476
LeftLeg -1.042555 -0.000000 0.000000
LeftFoot -23.213599 18.786861 -15.611984
LeftToeBase 25.158266 -0.000000 -0.000000
RightUpLeg 1.214712 -14.487598 -1.611841
RightLeg -4.707694 -0.000000 0.000000
RightFoot -21.456852 -23.707532 11.659656
RightToeBase 27.118806 -0.000000 -0.000000
112
root 5.328411 35.710475 -10.603138 6.474402 -1.300733 1.690604
Spine -10.413356 -15.119963 -1.868057
Head 1.071272 11.770996 16.030399
LeftShoulder -32.775460 2.635232 14.933182
LeftArm 14.555505 -44.956286 -20.126219
LeftForeArm 0.000000 21.910958 -3.331944
LeftHand 1.773155 -0.000000 2.919892
LeftHandThumb1 -26.253704 33.147579 0.000000
RightShoulder -2.646792 17.984713 -14.576484
RightArm 4.421418 35.230497 23.219017
RightForeArm -0.000000 -47.716734 14.133760
RightHand -3.377899 -0.000000 -2.823058
RightHandThumb1 -24.326973 -32.862282 -0.000000
LeftUpLeg -0.387463 11.686738 -1.268243
LeftLeg -1.031208 -0.000000 0.000000
LeftFoot -23.212680 18.782663 -15.599203
LeftToeBase 25.169042 -0.000000 -0.000000
RightUpLeg 1.216558 -14.494426 -1.607501
RightLeg -4.710939 -0.000000 0.000000
RightFoot -21.442029 -23.721271 11.643289
RightToeBase 27.071707 -0.000000 -0.000000
113
root 5.325881 35.711752 -10.606145 6.462940 -1.297459 1.691429
Spine -10.311398 -15.073838 -1.909443
Head 0.895765 11.755450 16.034045
LeftShoulder -32.824125 2.727039 14.851564
LeftArm 14.473395 -44.326465 -20.222549
LeftForeArm -0.000000 20.845015 -3.194140
LeftHand 1.787451 -0.000000 3.657116
LeftHandThumb1 -26.253704 33.147579 0.000000
RightShoulder -2.647401 17.794309 -14.698848
RightArm 4.036179 34.951539 23.392053
RightForeArm -0.000000 -47.008689 14.419802
RightHand -3.522998 0.000000 -3.881814
RightHandThumb1 -24.326973 -32.862282 -0.000000
LeftUpLeg -0.383101 11.668241 -1.263828
LeftLeg -1.026973 -0.000000 0.000000
LeftFoot -23.206130 18.797101 -15.620452
LeftToeBase 25.184663 -0.000000 -0.000000
RightUpLeg 1.228822 -14.495591 -1.603460
RightLeg -4.724472 -0.000000 0.000000
RightFoot -21.441554 -23.739766 11.656590
RightToeBase 27.115723 -0.000000 -0.000000
114
root 5.324191 35.713332 -10.609989 6.443275 -1.292160 1.692501
Spine -10.199497 -15.029527 -1.957844
Head 0.735946 11.730964 16.055328
LeftShoulder -32.860408 2.949662 14.756530
LeftArm 14.385502 -43.592985 -20.398686
LeftForeArm -0.000000 19.557394 -3.075476
LeftHand 1.712009 -0.000000 4.363315
LeftHandThumb1 -26.253704 33.147579 0.000000
RightShoulder -2.630178 17.584643 -14.821290
RightArm 3.590708 34.518921 23.571519
RightForeArm -0.000000 -46.227592 14.685500
RightHand -3.753909 -0.000000 -5.144790
RightHandThumb1 -24.326973 -32.862282 -0.000000
LeftUpLeg -0.380917 11.627284 -1.257954
LeftLeg -1.007748 -0.000000 0.000000
LeftFoot -23.204637 18.837496 -15.636251
LeftToeBase 25.152125 -0.000000 -0.000000
RightUpLeg 1.240546 -14.506640 -1.604829
RightLeg -4.721059 -0.000000 0.000000
RightFoot -21.421055 -23.729975 11.666160
RightToeBase 27.092996 -0.000000 -0.000000
115
root 5.321562 35.714996 -10.613950 6.434872 -1.298190 1.693039
Spine -10.091479 -14.971403 -2.016369
Head 0.556139 11.700535 16.102010
LeftShoulder -32.903682 3.265485 14.664571
LeftArm 14.280459 -42.706235 -20.660614
LeftForeArm -0.000000 18.235027 -2.930789
LeftHand 1.722574 -0.000000 4.903144
LeftHandThumb1 -26.253704 33.147579 0.000000
RightShoulder -2.629731 17.308241 -14.933319
RightArm 3.164175 33.776674 23.773892
RightForeArm 0.000000 -45.137669 14.848940
RightHand -3.811916 -0.000000 -6.600433
RightHandThumb1 -24.326973 -32.862282 -0.000000
LeftUpLeg -0.384802 11.680844 -1.257198
LeftLeg -0.999349 -0.000000 0.000000
LeftFoot -23.188021 18.798426 -15.637118
LeftToeBase 25.182716 -0.000000 -0.000000
RightUpLeg 1.242210 -14.488134 -1.598837
RightLeg -4.724916 -0.000000 0.000000
RightFoot -21.404255 -23.763660 11.655457
RightToeBase 27.070441 -0.000000 -0.000000
116
root 5.321231 35.717166 -10.619799 6.419783 -1.290433 1.697508
Spine -9.957829 -14.902062 -2.073133
Head 0.331794 11.669138 16.119077
LeftShoulder -32.918169 3.577122 14.565255
LeftArm 14.100025 -41.674312 -20.954392
LeftForeArm -0.000000 16.819684 -2.726615
LeftHand 1.784953 -0.000000 5.277563
LeftHandThumb1 -26.253704 33.147579 0.000000
RightShoulder -2.642806 16.956623 -15.049976
RightArm 2.753970 33.122873 24.049467
RightForeArm -0.000000 -44.192406 15.024314
RightHand -3.986377 -0.000000 -8.027811
RightHandThumb1 -24.326973 -32.862282 -0.000000
LeftUpLeg -0.344695 11.523142 -1.255036
LeftLeg -1.060083 -0.000000 0.000000
LeftFoot -23.168295 18.931893 -15.687991
LeftToeBase 25.143381 -0.000000 -0.000000
RightUpLeg 1.240956 -14.494742 -1.603711
RightLeg -4.710653 -0.000000 0.000000
RightFoot -21.391544 -23.756621 11.666881
RightToeBase 27.065583 -0.000000 -0.000000
